<svg width="124" height="24" viewBox="0 0 124 24" fill="none" xmlns="http://www.w3.org/2000/svg">
<path d="M16.1165 3.54545V21H12.929L5.33523 10.0142H5.20739V21H1.51705V3.54545H4.75568L12.2898 14.5227H12.4432V3.54545H16.1165ZM28.2122 15.4261V7.90909H31.8429V21H28.3571V18.6222H28.2207C27.9253 19.3892 27.4338 20.0057 26.7463 20.4716C26.0645 20.9375 25.2321 21.1705 24.2491 21.1705C23.3741 21.1705 22.6042 20.9716 21.9395 20.5739C21.2747 20.1761 20.7548 19.6108 20.3798 18.8778C20.0105 18.1449 19.823 17.267 19.8173 16.2443V7.90909H23.448V15.5966C23.4537 16.3693 23.6611 16.9801 24.0701 17.429C24.4792 17.8778 25.0275 18.1023 25.715 18.1023C26.1525 18.1023 26.5616 18.0028 26.9423 17.804C27.323 17.5994 27.6298 17.2983 27.8628 16.9006C28.1014 16.5028 28.2179 16.0114 28.2122 15.4261ZM47.6715 7.90909L43.0948 21H39.0039L34.4272 7.90909H38.2624L40.9812 17.2756H41.1176L43.8278 7.90909H47.6715ZM53.6309 21.2472C52.7957 21.2472 52.0513 21.1023 51.3979 20.8125C50.7445 20.517 50.2275 20.0824 49.8468 19.5085C49.4718 18.929 49.2843 18.2074 49.2843 17.3438C49.2843 16.6165 49.4178 16.0057 49.6849 15.5114C49.9519 15.017 50.3155 14.6193 50.7758 14.3182C51.236 14.017 51.7587 13.7898 52.3439 13.6364C52.9349 13.483 53.5542 13.375 54.2019 13.3125C54.9633 13.233 55.5769 13.1591 56.0428 13.0909C56.5087 13.017 56.8468 12.9091 57.057 12.767C57.2672 12.625 57.3724 12.4148 57.3724 12.1364V12.0852C57.3724 11.5455 57.2019 11.1278 56.861 10.8324C56.5258 10.5369 56.0485 10.3892 55.4292 10.3892C54.7758 10.3892 54.2559 10.5341 53.8695 10.8239C53.4832 11.108 53.2275 11.4659 53.1025 11.8977L49.7445 11.625C49.915 10.8295 50.2502 10.142 50.7502 9.5625C51.2502 8.97727 51.8951 8.52841 52.6849 8.21591C53.4803 7.89773 54.4008 7.73864 55.4462 7.73864C56.1735 7.73864 56.8695 7.82386 57.5343 7.99432C58.2047 8.16477 58.7985 8.42898 59.3155 8.78693C59.8383 9.14489 60.2502 9.60511 60.5513 10.1676C60.8525 10.7244 61.003 11.392 61.003 12.1705V21H57.5599V19.1847H57.4576C57.2474 19.5938 56.9661 19.9545 56.6138 20.267C56.2616 20.5739 55.8383 20.8153 55.3439 20.9915C54.8496 21.1619 54.2786 21.2472 53.6309 21.2472ZM54.6707 18.7415C55.2047 18.7415 55.6763 18.6364 56.0854 18.4261C56.4945 18.2102 56.8155 17.9205 57.0485 17.5568C57.2814 17.1932 57.3979 16.7812 57.3979 16.321V14.9318C57.2843 15.0057 57.128 15.0739 56.9292 15.1364C56.736 15.1932 56.5172 15.2472 56.2729 15.2983C56.0286 15.3437 55.7843 15.3864 55.54 15.4261C55.2957 15.4602 55.0741 15.4915 54.8752 15.5199C54.4491 15.5824 54.0769 15.6818 53.7587 15.8182C53.4405 15.9545 53.1934 16.1392 53.0172 16.3722C52.8411 16.5994 52.753 16.8835 52.753 17.2244C52.753 17.7188 52.932 18.0966 53.29 18.358C53.6536 18.6136 54.1138 18.7415 54.6707 18.7415ZM68.1705 13.4318V21H64.5398V7.90909H68V10.2188H68.1534C68.4432 9.45739 68.929 8.85511 69.6108 8.41193C70.2926 7.96307 71.1193 7.73864 72.0909 7.73864C73 7.73864 73.7926 7.9375 74.4688 8.33523C75.1449 8.73295 75.6705 9.30114 76.0455 10.0398C76.4205 10.7727 76.608 11.6477 76.608 12.6648V21H72.9773V13.3125C72.983 12.5114 72.7784 11.8864 72.3637 11.4375C71.9489 10.983 71.3779 10.7557 70.6506 10.7557C70.162 10.7557 69.7301 10.8608 69.3551 11.071C68.9858 11.2812 68.6961 11.5881 68.4858 11.9915C68.2813 12.3892 68.1762 12.8693 68.1705 13.4318ZM87.1526 7.90909V10.6364H79.269V7.90909H87.1526ZM81.0588 4.77273H84.6895V16.9773C84.6895 17.3125 84.7406 17.5739 84.8429 17.7614C84.9452 17.9432 85.0872 18.071 85.269 18.1449C85.4565 18.2187 85.6724 18.2557 85.9168 18.2557C86.0872 18.2557 86.2577 18.2415 86.4281 18.2131C86.5986 18.179 86.7293 18.1534 86.8202 18.1364L87.3912 20.8381C87.2094 20.8949 86.9537 20.9602 86.6241 21.0341C86.2946 21.1136 85.894 21.1619 85.4224 21.179C84.5474 21.2131 83.7804 21.0966 83.1213 20.8295C82.4679 20.5625 81.9594 20.1477 81.5957 19.5852C81.2321 19.0227 81.0531 18.3125 81.0588 17.4545V4.77273ZM96.0629 21.2557C94.7163 21.2557 93.5572 20.983 92.5856 20.4375C91.6197 19.8864 90.8754 19.108 90.3527 18.1023C89.8299 17.0909 89.5686 15.8949 89.5686 14.5142C89.5686 13.1676 89.8299 11.9858 90.3527 10.9688C90.8754 9.9517 91.6112 9.15909 92.5601 8.59091C93.5146 8.02273 94.6339 7.73864 95.918 7.73864C96.7816 7.73864 97.5856 7.87784 98.3299 8.15625C99.0799 8.42898 99.7334 8.84091 100.29 9.39205C100.853 9.94318 101.29 10.6364 101.603 11.4716C101.915 12.3011 102.071 13.2727 102.071 14.3864V15.3835H91.0174V13.1335H98.6538C98.6538 12.6108 98.5402 12.1477 98.3129 11.7443C98.0856 11.3409 97.7703 11.0256 97.3669 10.7983C96.9691 10.5653 96.5061 10.4489 95.9777 10.4489C95.4265 10.4489 94.9379 10.5767 94.5118 10.8324C94.0913 11.0824 93.7618 11.4205 93.5231 11.8466C93.2845 12.267 93.1623 12.7358 93.1566 13.2528V15.392C93.1566 16.0398 93.276 16.5994 93.5146 17.071C93.7589 17.5426 94.1027 17.9062 94.5459 18.1619C94.989 18.4176 95.5146 18.5455 96.1226 18.5455C96.526 18.5455 96.8953 18.4886 97.2305 18.375C97.5657 18.2614 97.8527 18.0909 98.0913 17.8636C98.3299 17.6364 98.5118 17.358 98.6368 17.0284L101.995 17.25C101.824 18.0568 101.475 18.7614 100.946 19.3636C100.424 19.9602 99.7476 20.4261 98.918 20.7614C98.0941 21.0909 97.1424 21.2557 96.0629 21.2557Z" fill="black"/>
</svg>
